# xmcd
#
# Track frame offsets: 
#        150
#        11203
#        37659
#        53399
#        70356
#        90408
#        110941
#        119016
#        131114
#        157206
#        169586
#        182532
#
# Disc length: 2716 seconds
#
# Revision: 0
# Processed by: cddbd v1.5.2PL0 Copyright (c) Steve Scherf et al.
# Submitted via: ExactAudioCopyFreeDBPlugin 1.0
#
DISCID=a10a9a0c
DTITLE=Domingos Camarinha;Santo Moreira - Guitarras Portuguesas
DYEAR=1957
DGENRE=Folklore
TTITLE0=Variacoes sobre o fado corrido
TTITLE1=Variacoes em si bemol
TTITLE2=Guitarra Triste
TTITLE3=Aguerella Coimbra
TTITLE4=Guiratta do Luar
TTITLE5=Variacoes em re Menor
TTITLE6=Flor de Amendoeira
TTITLE7=O Que me disse a Saudade
TTITLE8=Cantares Portugueses
TTITLE9=Murmurios Do Mondengo
TTITLE10=Nocturno
TTITLE11=Variacoes em la Menor
EXTD=
EXTT0=
EXTT1=
EXTT2=
EXTT3=
EXTT4=
EXTT5=
EXTT6=
EXTT7=
EXTT8=
EXTT9=
EXTT10=
EXTT11=
PLAYORDER=
